<svg xmlns="http://www.w3.org/2000/svg" fill="none" viewBox="0 0 139 101"><g fill="#442F3A" clip-path="url(#clip0)"><path d="M50.911 19.582c.454-.543.77-1.283.77-2.023 0-.108-.01-.207-.03-.296-.73.03-1.608.484-2.131 1.105-.405.464-.79 1.214-.79 1.964 0 .109.02.217.03.257.05.01.119.02.198.02.65 0 1.47-.445 1.953-1.027zm.513 1.184c-1.085 0-1.973.661-2.545.661-.602 0-1.402-.621-2.349-.621-1.806 0-3.631 1.49-3.631 4.302 0 1.756.67 3.602 1.51 4.796.72 1.006 1.342 1.835 2.25 1.835.897 0 1.292-.592 2.397-.592 1.135 0 1.382.582 2.368.582.987 0 1.639-.898 2.25-1.786a7.994 7.994 0 0 0 .997-2.052c-.06-.02-1.934-.79-1.934-2.93 0-1.866 1.47-2.695 1.559-2.754-.977-1.401-2.457-1.44-2.872-1.44zM67.15 29.152h1.372l-3.86-10.47H63.37l-3.86 10.47h1.372l1.052-2.997h4.164l1.052 2.997zm-3.156-8.881h.044l1.676 4.774h-3.396l1.676-4.774zm9.193 1.262c-1.045 0-1.995.515-2.438 1.3h-.029v-1.227h-1.197v10.063h1.262v-3.744h.03c.471.828 1.327 1.3 2.4 1.3 1.902 0 3.2-1.539 3.2-3.846 0-2.308-1.305-3.846-3.228-3.846zm-.247 6.574c-1.284 0-2.162-1.103-2.162-2.728 0-1.618.878-2.728 2.162-2.728 1.314 0 2.184 1.08 2.184 2.728 0 1.654-.87 2.728-2.184 2.728zm8.417-6.574c-1.045 0-1.996.515-2.438 1.3h-.03v-1.227h-1.197v10.063h1.263v-3.744h.029c.472.828 1.328 1.3 2.402 1.3 1.9 0 3.2-1.539 3.2-3.846 0-2.308-1.307-3.846-3.23-3.846zm-.247 6.574c-1.284 0-2.162-1.103-2.162-2.728 0-1.618.878-2.728 2.162-2.728 1.313 0 2.184 1.08 2.184 2.728 0 1.654-.87 2.728-2.184 2.728zm4.817 1.045h1.263v-10.47h-1.263v10.47zm5.993-6.523c1.176 0 1.981.842 2.01 2.104h-4.099c.08-1.255.921-2.104 2.09-2.104zm1.981 4.36c-.21.697-.943 1.14-1.872 1.14-1.327 0-2.205-.922-2.205-2.337v-.072h5.412v-.48c0-2.285-1.27-3.707-3.294-3.707-2.067 0-3.417 1.531-3.417 3.875 0 2.343 1.342 3.816 3.475 3.816 1.618 0 2.932-.928 3.142-2.235h-1.24z"/></g><path fill="#442F3A" d="M50.362 47.087a1.478 1.478 0 0 1 1.177 1.447c0 .513-.172.914-.517 1.201-.338.288-.826.432-1.464.432h-2.784v-5.983h2.717c.61 0 1.08.132 1.413.398.333.265.5.643.5 1.134 0 .36-.097.663-.288.905a1.335 1.335 0 0 1-.754.466zm-2.14-.457h.947c.502 0 .753-.215.753-.644 0-.428-.256-.643-.77-.643h-.93v1.287zm1.032 2.36c.536 0 .804-.22.804-.66 0-.214-.07-.38-.212-.499-.14-.124-.341-.186-.6-.186H48.22v1.346h1.033zm7.035-3.655v1.252h2.023v1.092h-2.023v1.329h2.277v1.16h-3.724v-5.984h3.724v1.15h-2.277zm9.936 3.148c0 .316-.081.607-.245.872a1.667 1.667 0 0 1-.71.634c-.311.158-.69.237-1.135.237-.671 0-1.224-.163-1.659-.49-.434-.328-.671-.785-.71-1.371h1.54a.823.823 0 0 0 .237.533c.14.13.318.194.533.194.186 0 .333-.05.44-.152a.533.533 0 0 0 .16-.406c0-.153-.05-.28-.152-.381a1.06 1.06 0 0 0-.364-.245 7.059 7.059 0 0 0-.609-.238 8.35 8.35 0 0 1-.93-.372 1.813 1.813 0 0 1-.619-.541c-.169-.243-.254-.556-.254-.94 0-.355.09-.663.271-.922.18-.26.43-.457.745-.593a2.715 2.715 0 0 1 1.1-.211c.666 0 1.194.158 1.583.474.395.316.618.75.668 1.303H64.55a.77.77 0 0 0-.22-.465c-.113-.119-.268-.178-.466-.178a.622.622 0 0 0-.414.135c-.102.09-.153.223-.153.398 0 .141.045.262.136.364.096.096.214.175.355.237s.344.14.61.237c.383.13.696.26.939.389.242.124.451.307.626.55.175.243.262.559.262.948zm7.638-4.3v1.152H72.24v4.832h-1.456v-4.832h-1.608v-1.151h4.688zm10.226-.092c.564 0 1.075.132 1.532.398.462.259.826.623 1.091 1.091.266.463.398.988.398 1.574 0 .587-.135 1.115-.406 1.583a2.88 2.88 0 0 1-1.092 1.1 3.03 3.03 0 0 1-1.523.39c-.559 0-1.07-.13-1.532-.39a2.96 2.96 0 0 1-1.092-1.1 3.154 3.154 0 0 1-.397-1.583c0-.587.132-1.111.397-1.574.271-.468.635-.832 1.092-1.091a3.025 3.025 0 0 1 1.532-.398zm0 1.345c-.474 0-.852.156-1.134.466-.277.304-.415.722-.415 1.252 0 .525.138.942.415 1.253.282.31.66.465 1.134.465.468 0 .843-.155 1.125-.465.282-.31.424-.728.424-1.253 0-.524-.142-.942-.424-1.252-.276-.31-.651-.466-1.125-.466zm10.274-1.252v1.15H91.91v1.313h1.896v1.1h-1.896v2.42h-1.447v-5.983h3.901zM44.7 70.933c2.64-1.744 4.742-3.496 6.307-5.256 1.581-1.76 2.371-3.407 2.371-4.943 0-.969-.253-1.752-.76-2.348-.507-.611-1.327-.917-2.46-.917-1.163 0-2.05.365-2.662 1.096-.596.716-.932 1.692-1.006 2.93h-1.544c.105-1.715.634-3.035 1.588-3.959.955-.94 2.2-1.41 3.736-1.41 1.401 0 2.534.381 3.4 1.142.864.76 1.296 1.87 1.296 3.332 0 1.238-.41 2.505-1.23 3.802-.82 1.283-1.841 2.475-3.064 3.579a24.904 24.904 0 0 1-3.735 2.773h8.477v1.298H44.7v-1.119zm13.048-6.777c0 2.55.395 4.533 1.186 5.95.805 1.401 2.221 2.102 4.25 2.102 2.012 0 3.421-.7 4.226-2.102.806-1.417 1.208-3.4 1.208-5.95 0-2.535-.402-4.503-1.208-5.904-.805-1.402-2.214-2.103-4.227-2.103-2.028 0-3.444.701-4.25 2.103-.79 1.401-1.185 3.37-1.185 5.904zm9.305 0c0 1.387-.105 2.557-.314 3.512-.193.94-.574 1.685-1.14 2.236-.567.552-1.372.828-2.416.828-1.058 0-1.871-.276-2.438-.828-.566-.551-.954-1.297-1.163-2.236-.194-.955-.29-2.125-.29-3.512 0-1.372.096-2.527.29-3.466.209-.94.597-1.685 1.163-2.237.567-.552 1.38-.828 2.438-.828 1.044 0 1.85.276 2.416.828.566.552.947 1.297 1.14 2.237.21.939.314 2.095.314 3.466zm3.923 6.777c2.64-1.744 4.742-3.496 6.307-5.256 1.58-1.76 2.371-3.407 2.371-4.943 0-.969-.253-1.752-.76-2.348-.507-.611-1.327-.917-2.46-.917-1.164 0-2.05.365-2.662 1.096-.597.716-.932 1.692-1.007 2.93h-1.543c.105-1.715.634-3.035 1.588-3.959.954-.94 2.2-1.41 3.735-1.41 1.402 0 2.535.381 3.4 1.142.865.76 1.297 1.87 1.297 3.332 0 1.238-.41 2.505-1.23 3.802-.82 1.283-1.841 2.475-3.064 3.579a24.909 24.909 0 0 1-3.735 2.773h8.476v1.298H70.976v-1.119zm13.048-6.777c0 2.55.395 4.533 1.185 5.95.806 1.401 2.222 2.102 4.25 2.102 2.013 0 3.422-.7 4.227-2.102.805-1.417 1.208-3.4 1.208-5.95 0-2.535-.403-4.503-1.208-5.904-.805-1.402-2.214-2.103-4.227-2.103-2.028 0-3.444.701-4.25 2.103-.79 1.401-1.185 3.37-1.185 5.904zm9.304 0c0 1.387-.104 2.557-.313 3.512-.194.94-.574 1.685-1.14 2.236-.567.552-1.372.828-2.416.828-1.059 0-1.871-.276-2.438-.828-.567-.551-.954-1.297-1.163-2.236-.194-.955-.29-2.125-.29-3.512 0-1.372.096-2.527.29-3.466.209-.94.596-1.685 1.163-2.237.567-.552 1.38-.828 2.438-.828 1.044 0 1.849.276 2.415.828.567.552.947 1.297 1.141 2.237.209.939.313 2.095.313 3.466z"/><path fill="#442F3A" d="M55.028 89.974c-18.472 3.074-36.572-9.583-42.752-30.133-3.146-10.131-2.799-21.553.906-31.198 3.591-9.356 10.54-16.935 18.48-21.27 1.452-.827 2.904-1.654 4.382-2.205.538-.188.901-.777.376-.451-7.902 3.22-15.603 8.645-20.598 16.324-4.995 7.678-7.034 17.31-6.705 27.003.944 19.5 13.21 36.717 29.53 42.035 5.298 1.74 11.021 2.05 16.356 1.148l-.113-1.24.138-.013z"/><path fill="#442F3A" d="M35.969 97.268s.275-.025.701.075c.426.1 1.115.038 1.954.1.839.062 1.803-.026 2.768-.114.964-.087 2.066-.188 3.143-.564 1.09-.238 2.029-.602 2.968-.965a10.38 10.38 0 0 0 2.379-1.328c1.302-.952 2.028-2.13 1.803-3.082-2.593.515-4.772.991-6.675 1.442-.539.189-.94.364-1.353.402-.4.175-.814.213-1.352.4-.802.352-1.616.565-2.28.903-.663.338-1.327.677-1.865.865-.526.326-.927.5-1.315.814-.488.74-.876 1.052-.876 1.052zM26.487 92.299s.288.112.714.213c.425.1 1.014.463 1.866.663.714.213 1.703.4 2.555.6.426.1.99.188 1.415.288.564.087.977.05 1.54.137.564.088.978.05 1.529 0l1.377-.126c.965-.088 1.779-.3 2.442-.64.664-.337 1.328-.676 1.716-.989.375-.45.613-.89.563-1.44-2.53-.325-4.622-.412-6.563-.374-.977-.05-1.803.025-2.63.1l-1.24.114-1.102.1a53.511 53.511 0 0 0-3.268.715c-.514.463-.914.639-.914.639zM18.331 85.125s.15.125.59.363c.438.238.889.613 1.615.964.727.35 1.466.839 2.33 1.177.877.475 1.74.813 2.743 1.138.438.238 1.002.326 1.428.426.426.1.851.2 1.415.288.84.062 1.69.262 2.367.062a6.14 6.14 0 0 0 1.766-.44c.388-.313.776-.626.864-1.19-2.305-.9-4.171-1.564-6.025-2.09-1.716-.537-3.256-.675-4.659-.824-.701-.075-1.265-.163-1.816-.113-.551.05-.977-.05-1.39-.012-.827.076-1.228.25-1.228.25zM11.804 75.997s.15.125.464.513c.313.388.764.764 1.227 1.277l.902.751 1.053.877c.751.626 1.49 1.114 2.23 1.602a21.11 21.11 0 0 0 2.342 1.315c.864.338 1.578.55 2.292.763 1.415.288 2.367.062 2.705-.802-1.942-1.49-3.57-2.592-5.174-3.418-.739-.488-1.465-.839-2.192-1.19-.726-.35-1.302-.575-1.878-.8-1.153-.45-2.142-.638-2.856-.851-.827.075-1.115-.037-1.115-.037zM7.105 65.59l.15.126c.013.138.163.263.314.388.175.4.5.927.964 1.44.339.664.953 1.302 1.429 1.953a21.124 21.124 0 0 0 1.716 2.066c.614.639 1.365 1.265 1.967 1.766.6.5 1.34.989 1.916 1.214 1.165.588 2.142.638 2.643.037-1.416-1.816-2.794-3.218-4.022-4.495-.614-.639-1.215-1.14-1.816-1.64-.601-.501-1.052-.877-1.641-1.24-1.04-.738-1.917-1.214-2.493-1.44-.288-.112-.576-.225-.726-.35l-.4.176zM4.56 54.432s.025.276.2.677c.176.4.364.939.564 1.615.338.664.539 1.34.89 2.142.35.8.84 1.59 1.19 2.391.978 1.578 1.93 2.88 2.982 3.757 1.052.876 1.917 1.214 2.417.613-.188-.539-.5-.927-.689-1.465-.313-.389-.501-.927-.677-1.328l-1.465-2.366C9.007 59.028 8.08 58 7.303 57.099c-.45-.375-.764-.763-1.077-1.152-.314-.388-.614-.638-.902-.75-.476-.652-.764-.765-.764-.765zM4.344 42.923l.05.551c.038.413.088.965.276 1.503.063.689.263 1.365.476 2.179.038.413.214.814.251 1.227.176.401.213.814.389 1.215.175.4.213.814.388 1.215.176.4.351.801.514 1.064.338.664.677 1.327 1.003 1.853.789 1.04 1.528 1.528 2.054 1.202-.94-4.22-2.169-7.025-3.472-9.129C5.76 44.74 5.146 44.1 4.82 43.574a1.91 1.91 0 0 0-.464-.513l-.012-.138zM6.257 31.914s-.063.84-.1 1.954c.05.55-.025 1.252.05 2.079l.214 2.342c.15 1.653.565 3.143 1.078 4.207.188.539.502.927.815 1.315.3.25.588.363.864.338-.088-.964-.038-1.941-.113-2.768-.076-.826-.151-1.653-.364-2.467-.063-.689-.276-1.503-.464-2.041-.2-.676-.251-1.227-.439-1.766-.376-1.077-.727-1.878-.915-2.417-.463-.513-.626-.776-.626-.776zM10.324 21.68s.013.139-.1.427-.213.714-.3 1.277c-.088.564-.313 1.14-.388 1.841l-.225 2.104c-.075.702-.012 1.39-.087 2.092L9.4 31.35c.238 1.09.59 1.89 1.14 1.84.65-3.532.662-6.45.486-8.378a9.932 9.932 0 0 0-.489-2.317 3.014 3.014 0 0 0-.213-.814zM16.208 13.088s-.125.15-.238.438c-.112.288-.363.59-.463 1.015-.475.877-.913 2.167-1.226 3.307-.225.576-.3 1.277-.388 1.84-.087.564-.162 1.266-.125 1.679-.05.977.164 1.79.74 2.016 1.251-3.031 1.864-5.448 1.964-7.402.05-.977.125-1.678.075-2.23-.314-.387-.339-.663-.339-.663zM23.633 6.16s-.376.451-.864 1.19c-.25.3-.626.752-.864 1.19-.238.439-.613.89-.838 1.466-.226.576-.601 1.027-.689 1.59-.238.439-.325 1.002-.425 1.428-.2.852-.138 1.54.176 1.929 1.727-2.38 2.653-4.41 3.204-5.987.263-1.691.3-2.806.3-2.806zM32.236 1.487s-.388.313-1.04.789c-.513.463-1.29 1.09-2.053 1.854l-1.002 1.203c-.237.438-.488.739-.726 1.177-.35.726-.425 1.428-.112 1.816.526-.326.902-.777 1.415-1.24.376-.451.764-.764 1.14-1.215l.876-1.053c.25-.3.488-.739.6-1.027.351-.726.589-1.165.689-1.59.238-.439.213-.714.213-.714zM39.771 81.086l.451.376c.3.25.74.488 1.19.864l1.766 1.089c.727.35 1.328.851 2.205 1.327.739.488 1.465.839 2.204 1.327.74.488 1.466.838 2.067 1.34 1.19.863 2.117 1.89 1.93 2.88-2.505-.05-4.647-.688-6.263-1.652-.438-.238-.739-.488-1.177-.726-.3-.25-.74-.488-1.052-.877-.602-.5-1.078-1.152-1.541-1.665-.464-.513-.802-1.177-.977-1.578-.188-.538-.502-.926-.54-1.34-.225-.951-.263-1.365-.263-1.365zM33.12 78.22s.614.639 1.391 1.54c.451.376.927 1.027 1.528 1.528.301.25.602.5.915.889.3.25.614.638.914.889.301.25.614.638.915.889.3.25.614.638.914.889.602.5 1.215 1.139 1.691 1.79.464.513.802 1.177 1.128 1.703.188.538.376 1.077.138 1.515-2.417-.613-4.196-1.84-5.561-3.104-.614-.639-1.228-1.277-1.717-2.066-.175-.4-.476-.651-.651-1.052a6.734 6.734 0 0 0-.501-.926c-.526-1.203-.777-2.43-.84-3.119-.226-.951-.264-1.365-.264-1.365zM27.145 73.626s.15.125.326.525c.163.263.489.79.677 1.328.326.526.664 1.19 1.128 1.703.338.663.814 1.315 1.302 2.103.176.401.477.652.652 1.052.175.401.476.651.652 1.052.476.651.827 1.453 1.152 1.979.339.663.527 1.202.727 1.878.05.551.1 1.102-.15 1.403-2.054-1.202-3.595-2.867-4.56-4.307-.977-1.578-1.528-3.056-1.792-4.42-.2-.677-.25-1.228-.3-1.779-.051-.551-.089-.964.011-1.39.075-.702.175-1.127.175-1.127zM22.16 67.69s.012.138.187.54c.025.275.213.813.401 1.352.163.263.188.538.364.939.163.263.2.676.363.939.2.676.552 1.478.903 2.279.35.801.564 1.615.902 2.28.35.8.551 1.477.752 2.153.401 1.353.502 2.455-.137 3.068-1.679-1.652-2.681-3.505-3.383-5.108a7.833 7.833 0 0 1-.64-2.442l-.188-2.067c.025-1.252.213-2.242.288-2.943.075-.701.187-.99.187-.99zM18.313 60.54l.05.552.125 1.377c.05.551.251 1.227.314 1.916.063.689.276 1.503.351 2.33.213.813.276 1.502.352 2.329l.2 2.204c.126 1.378-.061 2.367-.712 2.843a16.587 16.587 0 0 1-2.03-5.51l-.214-2.342c.075-.701.15-1.403.237-1.966.175-1.127.65-2.004.876-2.58.113-.288.238-.439.363-.589l.088-.564zM16.044 52.413s-.075.701-.113 1.816c-.087.564-.037 1.115-.112 1.816-.075.701-.012 1.39-.087 2.092 0 1.527-.137 3.068-.312 4.195-.162 1.265-.5 2.13-1.177 2.33-.188-.539-.376-1.077-.413-1.49-.188-.539-.226-.952-.276-1.503-.088-.964-.164-1.791-.101-2.63.125-1.678.425-2.956.888-3.97.238-.439.476-.877.576-1.303.25-.3.5-.601.613-.89.263-.162.514-.463.514-.463zM15.277 44.01s.013.138-.1.426c-.112.288-.213.714-.313 1.14-.1.425-.325 1.001-.4 1.703-.113.288-.225.576-.188.99-.112.287-.212.713-.187.989-.213.713-.3 1.277-.513 1.991-.213.714-.438 1.29-.538 1.716-.463 1.014-.951 1.754-1.64 1.816-.1-1.102-.176-1.928-.126-2.905.1-.426.062-.84.162-1.265.1-.426.2-.852.313-1.14.288-1.415 1.014-2.593 1.502-3.332.626-.751 1.127-1.353 1.515-1.666.263-.163.388-.313.526-.325l-.013-.138zM16.314 35.58s-.225.577-.713 1.316c-.238.438-.476.877-.701 1.453-.225.576-.463 1.015-.826 1.603-.588 1.165-1.177 2.33-1.803 3.082-.238.438-.626.751-.876 1.052-.263.163-.664.338-.952.226.05-.977.25-1.829.463-2.543.212-.714.563-1.44.788-2.016.363-.59.589-1.165.964-1.616.376-.451.764-.764 1.014-1.065a5.83 5.83 0 0 1 1.703-1.128c.664-.338.94-.363.94-.363zM18.917 27.565l-2.88 3.457-1.126 1.353c-.376.451-.764.764-1.014 1.065-.777.626-1.302.952-1.891.59.2-.853.55-1.58.913-2.168.364-.588.727-1.177 1.102-1.628.751-.902 1.528-1.529 2.33-1.88.663-.338 1.339-.538 1.752-.576.539-.188.814-.213.814-.213zM23.136 20.513s-.138.012-.263.163c-.125.15-.388.313-.651.476-.651.476-1.427 1.102-2.216 1.59-.388.314-.777.627-1.315.815-.388.314-.789.489-1.19.664-.4.176-.663.339-1.077.376a1.057 1.057 0 0 1-.713-.212c1.564-2.643 3.693-3.67 5.045-4.072.677-.2 1.378-.126 1.791-.163.301.25.59.363.59.363zM28.57 14.6s-.401.175-1.077.376c-.263.163-.676.2-1.077.376l-1.202.526c-.401.176-.802.351-1.34.54-.401.175-.814.213-1.215.388-.689.063-1.378.125-1.566-.413 1.904-1.98 3.957-2.305 5.21-2.28 1.528-.001 2.267.487 2.267.487zM35.269 10.378l-.965.088-.964.088-1.24.113-1.24.113c-.413.037-.826.075-1.114-.038-.702-.075-1.278-.3-1.315-.713.525-.326 1.064-.514 1.465-.69.538-.187.951-.225 1.365-.263.413-.037.826-.075 1.252.025.426.1.702.075.99.188.576.225 1.014.463 1.315.713.288.113.45.376.45.376zM43.809 3.487s-.564-.087-1.528 0c-.414.038-.977-.05-1.528.001l-.965.088-.964.088c-.275.025-.689.063-.952.226-.275.025-.676.2-.951.225-.677.2-1.353.401-1.879.727-.538.188-1.202.527-1.578.978-.262.162-.388.313-.65.476-.126.15-.389.313-.502.6l1.516-.137c.55-.05 1.09-.239 1.766-.44.275-.024.538-.187.939-.363.263-.162.676-.2.939-.363.263-.163.676-.2.94-.363.262-.163.675-.201.938-.364.263-.163.677-.2.94-.363.275-.025.538-.188.814-.213.538-.188 1.077-.376 1.49-.414.676-.2 1.215-.389 1.215-.389zM83.972 89.974c18.472 3.074 36.572-9.583 42.752-30.133 3.146-10.131 2.799-21.553-.906-31.198-3.591-9.356-10.54-16.935-18.479-21.27-1.453-.827-2.905-1.654-4.383-2.205-.538-.188-.901-.777-.376-.451 7.902 3.22 15.603 8.645 20.598 16.324 4.995 7.678 7.034 17.31 6.705 27.003-.944 19.5-13.21 36.717-29.53 42.035-5.298 1.74-11.021 2.05-16.356 1.148l.113-1.24-.138-.013z"/><path fill="#442F3A" d="M103.031 97.268s-.275-.025-.701.075c-.426.1-1.115.038-1.954.1-.839.062-1.803-.026-2.768-.114-.964-.087-2.066-.188-3.143-.564-1.09-.238-2.029-.602-2.968-.965a10.38 10.38 0 0 1-2.379-1.328c-1.302-.952-2.028-2.13-1.803-3.082 2.593.515 4.772.991 6.675 1.442.539.189.94.364 1.353.402.4.175.814.213 1.352.4.802.352 1.616.565 2.28.903.663.338 1.327.677 1.865.865.526.326.927.5 1.315.814.488.74.876 1.052.876 1.052zM112.513 92.299s-.288.112-.714.213c-.425.1-1.014.463-1.866.663-.714.213-1.703.4-2.555.6-.426.1-.989.188-1.415.288-.564.087-.977.05-1.541.137-.563.088-.977.05-1.528 0l-1.377-.126c-.965-.088-1.778-.3-2.442-.64-.664-.337-1.328-.676-1.716-.989-.375-.45-.613-.89-.563-1.44 2.53-.325 4.622-.412 6.563-.374.977-.05 1.803.025 2.63.1l1.24.114 1.102.1c1.365.264 2.454.502 3.268.715.514.463.914.639.914.639zM120.668 85.125s-.15.125-.588.363c-.439.238-.89.613-1.616.964-.727.35-1.466.839-2.33 1.177-.877.475-1.741.813-2.743 1.138-.438.238-1.002.326-1.428.426-.426.1-.851.2-1.415.288-.839.062-1.691.262-2.367.062a6.143 6.143 0 0 1-1.766-.44c-.388-.313-.776-.626-.864-1.19 2.305-.9 4.171-1.564 6.025-2.09 1.716-.537 3.256-.675 4.659-.824.701-.075 1.265-.163 1.816-.113.551.05.977-.05 1.39-.012.827.076 1.227.25 1.227.25zM127.196 75.997s-.151.125-.464.513c-.313.388-.764.764-1.228 1.277l-.901.751-1.053.877c-.751.626-1.49 1.114-2.229 1.602-.739.488-1.616.964-2.343 1.315-.864.338-1.578.55-2.292.763-1.415.288-2.367.062-2.705-.802 1.942-1.49 3.57-2.592 5.174-3.418.739-.488 1.465-.839 2.192-1.19.726-.35 1.302-.575 1.878-.8 1.153-.45 2.142-.638 2.856-.851.827.075 1.115-.037 1.115-.037zM131.895 65.59l-.15.126c-.013.138-.163.263-.314.388-.175.4-.501.927-.964 1.44-.339.664-.953 1.302-1.429 1.953a21.075 21.075 0 0 1-1.716 2.066c-.614.639-1.365 1.265-1.967 1.766-.601.5-1.34.989-1.916 1.214-1.165.588-2.142.638-2.643.037 1.416-1.816 2.794-3.218 4.022-4.495.614-.639 1.215-1.14 1.816-1.64.601-.501 1.052-.877 1.641-1.24 1.04-.738 1.917-1.214 2.493-1.44.288-.112.576-.225.726-.35l.401.176zM134.44 54.432s-.025.276-.2.677c-.176.4-.364.939-.564 1.615-.338.664-.539 1.34-.89 2.142-.351.8-.839 1.59-1.19 2.391-.978 1.578-1.93 2.88-2.982 3.757-1.052.876-1.917 1.214-2.417.613.188-.539.501-.927.689-1.465.313-.389.501-.927.677-1.328l1.465-2.366c.965-1.44 1.892-2.467 2.669-3.369.451-.375.764-.763 1.077-1.152.314-.388.614-.638.902-.75.476-.652.764-.765.764-.765zM134.656 42.923l-.05.551c-.038.413-.088.965-.276 1.503-.063.689-.263 1.365-.476 2.179-.038.413-.214.814-.251 1.227-.176.401-.213.814-.389 1.215-.175.4-.213.814-.388 1.215-.176.4-.351.801-.514 1.064-.338.664-.677 1.327-1.003 1.853-.789 1.04-1.528 1.528-2.054 1.202.941-4.22 2.169-7.025 3.472-9.129.514-1.064 1.127-1.703 1.453-2.229.163-.263.313-.388.464-.513l.012-.138zM132.743 31.914s.063.84.1 1.954c-.05.55.025 1.252-.051 2.079l-.213 2.342c-.151 1.653-.565 3.143-1.078 4.207-.188.539-.502.927-.815 1.315-.3.25-.588.363-.864.338.088-.964.038-1.941.113-2.768.076-.826.151-1.653.364-2.467.063-.689.276-1.503.464-2.041.201-.676.251-1.227.439-1.766.376-1.077.727-1.878.915-2.417.463-.513.626-.776.626-.776zM128.676 21.68s-.013.139.1.427.213.714.3 1.277c.088.564.313 1.14.388 1.841l.225 2.104c.075.702.012 1.39.087 2.092l-.176 1.929c-.238 1.09-.589 1.89-1.14 1.84-.65-3.532-.662-6.45-.486-8.378a9.937 9.937 0 0 1 .489-2.317c.037-.413.213-.814.213-.814zM122.792 13.088s.125.15.238.438c.112.288.363.59.463 1.015.475.877.913 2.167 1.226 3.307.225.576.3 1.277.388 1.84.087.564.162 1.266.125 1.679.05.977-.164 1.79-.74 2.016-1.251-3.031-1.864-5.448-1.964-7.402-.05-.977-.125-1.678-.075-2.23.314-.387.339-.663.339-.663zM115.367 6.16s.376.451.864 1.19c.25.3.626.752.864 1.19.238.439.613.89.838 1.466.226.576.601 1.027.689 1.59.238.439.325 1.002.425 1.428.2.852.138 1.54-.176 1.929-1.727-2.38-2.653-4.41-3.204-5.987-.263-1.691-.3-2.806-.3-2.806zM106.764 1.487s.388.313 1.04.789c.513.463 1.289 1.09 2.053 1.854l1.002 1.203c.237.438.488.739.726 1.177.35.726.425 1.428.112 1.816-.526-.326-.902-.777-1.415-1.24-.376-.451-.764-.764-1.139-1.215l-.877-1.053c-.25-.3-.488-.739-.601-1.027-.35-.726-.588-1.165-.688-1.59-.238-.439-.213-.714-.213-.714zM99.229 81.086l-.451.376c-.3.25-.74.488-1.19.864l-1.766 1.089c-.727.35-1.328.851-2.205 1.327-.739.488-1.466.839-2.205 1.327-.739.488-1.465.838-2.066 1.34-1.19.863-2.117 1.89-1.93 2.88 2.505-.05 4.647-.688 6.263-1.652.438-.238.739-.488 1.177-.726.3-.25.74-.488 1.052-.877.602-.5 1.078-1.152 1.541-1.665.464-.513.802-1.177.978-1.578.188-.538.5-.926.538-1.34.226-.951.264-1.365.264-1.365zM105.88 78.22s-.614.639-1.391 1.54c-.451.376-.927 1.027-1.528 1.528-.301.25-.602.5-.915.889-.301.25-.614.638-.914.889-.301.25-.614.638-.915.889-.3.25-.614.638-.914.889-.602.5-1.215 1.139-1.691 1.79-.464.513-.802 1.177-1.128 1.703-.188.538-.376 1.077-.138 1.515 2.417-.613 4.196-1.84 5.561-3.104.614-.639 1.228-1.277 1.716-2.066.176-.4.477-.651.652-1.052.175-.4.338-.664.501-.926.527-1.203.777-2.43.84-3.119.226-.951.264-1.365.264-1.365zM111.855 73.626s-.151.125-.326.525c-.163.263-.489.79-.677 1.328-.326.526-.664 1.19-1.127 1.703-.339.663-.815 1.315-1.304 2.103-.175.401-.476.652-.651 1.052-.175.401-.476.651-.652 1.052-.476.651-.827 1.453-1.152 1.979-.339.663-.527 1.202-.727 1.878-.05.551-.101 1.102.15 1.403 2.054-1.202 3.595-2.867 4.56-4.307.977-1.578 1.528-3.056 1.792-4.42.2-.677.25-1.228.301-1.779.05-.551.088-.964-.012-1.39-.075-.702-.175-1.127-.175-1.127zM116.841 67.69s-.013.138-.188.54c-.025.275-.213.813-.401 1.352-.163.263-.188.538-.364.939-.163.263-.2.676-.363.939-.201.676-.552 1.478-.903 2.279-.35.801-.564 1.615-.902 2.28-.351.8-.551 1.477-.752 2.153-.401 1.353-.502 2.455.137 3.068 1.679-1.652 2.681-3.505 3.383-5.108a7.819 7.819 0 0 0 .639-2.442l.189-2.067c-.025-1.252-.213-2.242-.288-2.943-.075-.701-.187-.99-.187-.99zM120.687 60.54l-.05.552-.125 1.377c-.051.551-.251 1.227-.314 1.916-.063.689-.276 1.503-.351 2.33-.213.813-.276 1.502-.352 2.329l-.201 2.204c-.125 1.378.062 2.367.713 2.843a16.597 16.597 0 0 0 2.031-5.51l.213-2.342c-.075-.701-.15-1.403-.237-1.966-.175-1.127-.651-2.004-.876-2.58-.113-.288-.238-.439-.363-.589l-.088-.564zM122.956 52.413s.075.701.113 1.816c.087.564.037 1.115.112 1.816.075.701.012 1.39.087 2.092 0 1.527.137 3.068.312 4.195.162 1.265.5 2.13 1.177 2.33.188-.539.376-1.077.413-1.49.188-.539.226-.952.276-1.503.088-.964.164-1.791.101-2.63-.125-1.678-.425-2.956-.888-3.97-.238-.439-.476-.877-.576-1.303-.25-.3-.501-.601-.613-.89-.263-.162-.514-.463-.514-.463zM123.723 44.01s-.013.138.1.426c.112.288.213.714.313 1.14.1.425.325 1.001.4 1.703.113.288.225.576.187.99.113.287.213.713.188.989.213.713.3 1.277.513 1.991.213.714.438 1.29.538 1.716.463 1.014.951 1.754 1.64 1.816.101-1.102.176-1.928.126-2.905-.1-.426-.062-.84-.162-1.265-.1-.426-.2-.852-.313-1.14-.288-1.415-1.014-2.593-1.502-3.332-.626-.751-1.127-1.353-1.515-1.666-.263-.163-.388-.313-.526-.325l.013-.138zM122.686 35.58s.225.577.713 1.316c.238.438.476.877.701 1.453.225.576.463 1.015.826 1.603.588 1.165 1.177 2.33 1.803 3.082.238.438.626.751.876 1.052.263.163.664.338.952.226-.05-.977-.25-1.829-.463-2.543-.213-.714-.563-1.44-.788-2.016-.363-.59-.589-1.165-.964-1.616-.376-.451-.764-.764-1.014-1.065a5.845 5.845 0 0 0-1.703-1.128c-.664-.338-.939-.363-.939-.363zM120.083 27.565l2.879 3.457 1.127 1.353c.376.451.764.764 1.014 1.065.777.626 1.302.952 1.891.59a7.328 7.328 0 0 0-.913-2.168c-.364-.588-.727-1.177-1.102-1.628-.751-.902-1.528-1.529-2.329-1.88-.664-.338-1.34-.538-1.753-.576-.539-.188-.814-.213-.814-.213zM115.864 20.513s.138.012.263.163c.125.15.388.313.651.476.651.476 1.427 1.102 2.216 1.59.388.314.777.627 1.315.815.388.314.789.489 1.19.664.4.176.663.339 1.077.376.275.025.563-.087.714-.212-1.565-2.643-3.694-3.67-5.047-4.072-.676-.2-1.377-.126-1.79-.163-.301.25-.589.363-.589.363zM110.43 14.6s.401.175 1.077.376c.263.163.676.2 1.077.376l1.202.526c.401.176.802.351 1.34.54.401.175.814.213 1.215.388.689.063 1.378.125 1.566-.413-1.904-1.98-3.957-2.305-5.21-2.28-1.528-.001-2.267.487-2.267.487zM103.731 10.378l.965.088.964.088 1.24.113 1.24.113c.413.037.826.075 1.114-.038.702-.075 1.278-.3 1.315-.713-.526-.326-1.064-.514-1.465-.69-.538-.187-.951-.225-1.365-.263-.413-.037-.826-.075-1.252.025-.426.1-.701.075-.99.188-.576.225-1.014.463-1.315.713-.288.113-.451.376-.451.376zM95.192 3.487s.563-.087 1.527 0c.414.038.977-.05 1.528.001l.965.088.964.088c.275.025.689.063.952.226.275.025.676.2.951.225.677.2 1.353.401 1.879.727.538.188 1.202.527 1.578.978.263.162.388.313.651.476.125.15.388.313.5.6l-1.515-.137c-.551-.05-1.089-.239-1.766-.44-.275-.024-.538-.187-.939-.363-.263-.162-.676-.2-.939-.363-.263-.163-.676-.2-.939-.363-.263-.163-.676-.201-.94-.364-.262-.163-.676-.2-.939-.363-.275-.025-.538-.188-.814-.213-.538-.188-1.076-.376-1.49-.414-.676-.2-1.215-.389-1.215-.389z"/><defs><clipPath id="clip0"><path fill="#fff" d="M0 0h52.881v22.86H0z" transform="translate(42.919 13.152)"/></clipPath></defs></svg>