<svg width="85" height="73" viewBox="0 0 85 73" fill="none" xmlns="http://www.w3.org/2000/svg">
<path d="M4.28571 72.4615C1.42857 60.065 0 49.3058 0 40.1839C0 27.0857 3.09524 17.262 9.28571 10.7129C15.4762 3.92995 24.5238 0.538467 36.4286 0.538467V14.5722C30.2381 14.5722 25.7143 16.2095 22.8571 19.4841C20.2381 22.7586 18.9286 27.6704 18.9286 34.2195V42.2889H36.7857V72.4615H4.28571ZM52.5 72.4615C49.6429 60.065 48.2143 49.3058 48.2143 40.1839C48.2143 27.0857 51.3095 17.262 57.5 10.7129C63.6905 3.92995 72.7381 0.538467 84.6429 0.538467V14.5722C78.4524 14.5722 73.9286 16.2095 71.0714 19.4841C68.4524 22.7586 67.1429 27.6704 67.1429 34.2195V42.2889H85V72.4615H52.5Z" fill="#F7CA5D"/>
</svg>
