<svg xmlns="http://www.w3.org/2000/svg" fill="none" width="1439" height="714" viewBox="0 0 1439 714"><path d="M1563.9 1621.37c-81.11 163.52-196.56 297.97-337.22 414.3-150.3 124.3-307.067 242.27-498.947 277.26-220.403 40.18-493.13 90.38-652.188-67.39-161.173-159.87-13.088-442.73-80.59-659.47-66.242-212.7-356.285-359.93-304.356-576.57 51.169-213.464 343.078-247.915 529.696-363.503C389.517 541.184 532.45 382.75 730.733 365.265c207.443-18.293 407.297 69.425 580.857 184.499 180.08 119.392 366.36 266.015 415.87 476.326 48.35 205.33-69.82 406.31-163.56 595.28z" fill="#F7E9CC" fill-rule="evenodd" clip-rule="evenodd"/><path d="M1563.9 1552.72c-81.11 163.51-196.56 297.96-337.22 414.29-150.3 124.31-307.067 242.28-498.947 277.26-220.403 40.19-493.13 90.39-652.188-67.39-161.173-159.87-13.088-442.72-80.59-659.47-66.242-212.69-356.285-359.92-304.356-576.56 51.169-213.468 343.078-247.92 529.696-363.508C389.517 472.529 532.45 314.095 730.733 296.61c207.443-18.293 407.297 69.426 580.857 184.499 180.08 119.392 366.36 266.015 415.87 476.328 48.35 205.323-69.82 406.303-163.56 595.283z" stroke="#E4A42C" stroke-width=".99" clip-rule="evenodd"/></svg>