<svg width="304" height="306" viewBox="0 0 304 306" fill="none" xmlns="http://www.w3.org/2000/svg">
<path d="M-260.354 432.339L-106.04 424.724C-92.5025 424.056 -83.5409 438.571 -90.203 450.374C-99.8233 467.418 -78.0633 484.741 -63.6099 471.544L-51.1366 460.156L9.50794 418.74C23.2896 409.328 39.9804 405.149 56.5709 406.958L206.528 423.304C241.303 427.095 273.538 404.632 282.023 370.695L295.935 315.052C306.843 271.422 274.367 228.972 229.403 228.087L172.617 226.969C140.716 226.341 113.277 204.22 105.895 173.179L79.1192 60.5971C69.9579 22.0767 30.6976 -1.18406 -7.48826 9.28424L-67.0295 25.6069L-220.123 78.9081C-241.183 86.2401 -257.489 103.167 -264.029 124.486L-330.725 341.894C-344.957 388.284 -308.819 434.731 -260.354 432.339Z" fill="#347371"/>
</svg>
