<svg width="318" height="272" viewBox="0 0 318 272" fill="none" xmlns="http://www.w3.org/2000/svg">
<path d="M-241.373 -154.183L-64.0565 -145.433C-58.6217 -145.165 -53.2367 -144.264 -48.0106 -142.749L45.7287 -115.566C51.6188 -113.858 57.897 -114.046 63.6742 -116.104L87.5224 -124.6C96.2357 -127.704 105.258 -120.809 104.552 -111.586C103.858 -102.526 112.575 -95.6571 121.222 -98.4513L214.928 -128.733C253.485 -141.193 294.534 -118.414 304.362 -79.1035L314.915 -36.8961C325.823 6.73402 293.347 49.1836 248.383 50.0688L191.597 51.1868C159.697 51.8148 132.257 73.9357 124.875 104.977L98.0994 217.558C88.9381 256.079 49.6778 279.34 11.4919 268.871L-48.0493 252.549L-201.143 199.248C-222.202 191.916 -238.508 174.989 -245.049 153.67L-311.745 -63.7383C-325.977 -110.129 -289.839 -156.575 -241.373 -154.183Z" fill="#4D918F"/>
</svg>
