<svg width="190" height="134" viewBox="0 0 190 134" fill="none" xmlns="http://www.w3.org/2000/svg">
<path d="M102.722 73.6786C103.202 73.4058 103.37 72.7953 103.098 72.3152C102.825 71.835 102.214 71.6669 101.734 71.9397L102.722 73.6786ZM8.62859 97.1271C8.86198 97.6277 9.45695 97.8443 9.9575 97.6109L18.1144 93.8077C18.615 93.5743 18.8316 92.9793 18.5982 92.4788C18.3648 91.9782 17.7698 91.7616 17.2693 91.995L10.0187 95.3757L6.63802 88.125C6.40463 87.6245 5.80966 87.4079 5.30911 87.6413C4.80856 87.8747 4.59198 88.4697 4.82537 88.9702L8.62859 97.1271ZM78.622 86.222L79.116 87.0915L78.622 86.222ZM101.734 71.9397L78.128 85.3526L79.116 87.0915L102.722 73.6786L101.734 71.9397ZM9.25751 94.5432L8.59524 96.3625L10.4746 97.0466L11.1369 95.2273L9.25751 94.5432ZM50.6988 83.0806C36.6162 71.6462 15.4625 77.4972 9.25751 94.5432L11.1369 95.2273C16.8717 79.4729 36.4226 74.0652 49.4382 84.6332L50.6988 83.0806ZM78.128 85.3526C69.3898 90.3176 58.501 89.4156 50.6988 83.0806L49.4382 84.6332C57.88 91.4876 69.6615 92.4635 79.116 87.0915L78.128 85.3526Z" fill="white"/>
<path d="M109.71 22.2855L108.717 23.6329L106.036 21.6569L99.6061 30.3788L97.9544 29.1611L104.385 20.4392L101.69 18.4525L102.683 17.1051L109.71 22.2855ZM110.642 27.9817C111.182 27.7541 111.732 27.6751 112.292 27.7449C112.869 27.8122 113.432 28.0488 113.983 28.4547L112.723 30.1643L112.302 29.8545C111.655 29.3774 111.042 29.1785 110.461 29.2576C109.891 29.3439 109.307 29.7928 108.708 30.6041L105.611 34.8057L103.959 33.588L109.845 25.605L111.496 26.8227L110.642 27.9817ZM122.591 35.0023L109.042 43.1275L107.333 41.8671L111.818 39.1806L114.463 29.0101L116.303 30.3666L114.063 38.1073L120.882 33.7419L122.591 35.0023ZM124.517 48.9455C123.889 48.4827 123.406 47.955 123.068 47.3626C122.746 46.7676 122.583 46.1701 122.578 45.5701C122.58 44.9605 122.75 44.4071 123.086 43.9099L124.796 45.1703C124.576 45.5297 124.525 45.9321 124.644 46.3776C124.779 46.8205 125.069 47.2057 125.514 47.5333C125.977 47.8751 126.399 48.0516 126.778 48.0629C127.174 48.0716 127.476 47.936 127.682 47.6559C127.903 47.3564 127.922 47.0275 127.739 46.669C127.565 46.3176 127.234 45.8271 126.744 45.1975C126.266 44.5918 125.896 44.0728 125.633 43.6406C125.37 43.2083 125.216 42.7296 125.171 42.2043C125.136 41.6862 125.31 41.1663 125.695 40.6448C126.008 40.2198 126.418 39.926 126.926 39.7634C127.441 39.5912 128.004 39.5745 128.618 39.7135C129.24 39.8596 129.856 40.1569 130.465 40.6055C131.373 41.2749 131.931 42.0443 132.14 42.9139C132.365 43.7808 132.205 44.6246 131.66 45.4451L130.008 44.2274C130.243 43.8487 130.308 43.4569 130.204 43.0522C130.1 42.6474 129.826 42.2813 129.381 41.9537C128.947 41.6333 128.553 41.4697 128.2 41.463C127.847 41.4563 127.571 41.5882 127.372 41.8586C127.215 42.0711 127.16 42.3068 127.208 42.5656C127.256 42.8244 127.359 43.0792 127.517 43.3299C127.682 43.5709 127.936 43.9144 128.278 44.3604C128.743 44.9422 129.099 45.4505 129.345 45.8853C129.608 46.3176 129.761 46.7879 129.803 47.2964C129.846 47.8049 129.683 48.3186 129.315 48.8377C128.981 49.2916 128.556 49.6047 128.041 49.777C127.527 49.9492 126.963 49.9658 126.35 49.8269C125.746 49.695 125.135 49.4012 124.517 48.9455ZM132.822 55.0678C132.068 54.5124 131.512 53.8413 131.153 53.0546C130.801 52.2583 130.678 51.4229 130.786 50.5484C130.902 49.6642 131.262 48.8116 131.867 47.9906C132.465 47.1793 133.174 46.5914 133.995 46.2271C134.815 45.8627 135.659 45.7394 136.526 45.857C137.394 45.9747 138.209 46.3148 138.972 46.8774C139.735 47.4399 140.301 48.1181 140.67 48.9119C141.039 49.7057 141.17 50.5482 141.065 51.4395C140.959 52.3308 140.608 53.1821 140.01 53.9935C139.411 54.8048 138.697 55.3891 137.867 55.7464C137.038 56.1036 136.176 56.2211 135.282 56.0988C134.405 55.974 133.585 55.6303 132.822 55.0678ZM133.879 53.6335C134.304 53.9468 134.775 54.1373 135.291 54.2051C135.818 54.2799 136.346 54.2 136.877 53.9652C137.408 53.7305 137.887 53.3233 138.314 52.7438C138.742 52.1642 138.99 51.5946 139.06 51.0348C139.137 50.4653 139.067 49.9439 138.849 49.4705C138.632 48.997 138.31 48.6037 137.885 48.2904C137.46 47.977 136.99 47.7865 136.473 47.7187C135.966 47.6581 135.457 47.7523 134.945 48.0013C134.441 48.2407 133.975 48.6501 133.548 49.2296C132.914 50.0893 132.64 50.916 132.726 51.7097C132.828 52.5009 133.213 53.1421 133.879 53.6335ZM154.339 58.207C154.967 58.6698 155.431 59.2132 155.732 59.8372C156.042 60.4682 156.148 61.143 156.051 61.8614C155.963 62.587 155.652 63.3119 155.118 64.0364L151.647 68.745L150.01 67.5381L153.299 63.0757C153.826 62.3609 154.05 61.6835 153.97 61.0433C153.898 60.3935 153.552 59.8407 152.934 59.3849C152.316 58.9292 151.681 58.7592 151.029 58.875C150.394 58.9882 149.813 59.4022 149.286 60.117L145.996 64.5793L144.359 63.3724L147.649 58.91C148.176 58.1952 148.4 57.5178 148.32 56.8776C148.247 56.2278 147.902 55.675 147.284 55.2192C146.666 54.7635 146.031 54.5935 145.379 54.7093C144.744 54.8225 144.163 55.2365 143.636 55.9513L140.346 60.4136L138.694 59.196L144.58 51.2129L146.231 52.4306L145.558 53.3434C146.071 53.2143 146.603 53.2112 147.153 53.3339C147.704 53.4565 148.216 53.6923 148.689 54.0413C149.326 54.5112 149.797 55.0666 150.1 55.7073C150.402 56.3481 150.5 57.0241 150.393 57.7354C150.991 57.4305 151.649 57.3266 152.367 57.4239C153.093 57.5116 153.75 57.7726 154.339 58.207ZM164.152 71.5014C163.931 71.8009 163.712 72.0571 163.496 72.27L157.396 67.7732C156.975 68.4463 156.834 69.1327 156.974 69.8324C157.114 70.532 157.493 71.1097 158.111 71.5655C159 72.2206 159.902 72.3116 160.817 71.8384L162.599 73.1522C161.817 73.7083 160.932 73.988 159.946 73.9913C158.976 73.9921 158.023 73.6471 157.086 72.9564C156.323 72.3938 155.762 71.7192 155.403 70.9325C155.06 70.1433 154.943 69.3114 155.051 68.4369C155.176 67.5599 155.541 66.7108 156.146 65.8898C156.751 65.0688 157.446 64.4703 158.23 64.0942C159.031 63.7157 159.855 63.5781 160.704 63.6815C161.561 63.7921 162.381 64.1357 163.164 64.7125C163.917 65.2679 164.467 65.927 164.814 66.6898C165.162 67.4526 165.278 68.2545 165.165 69.0954C165.059 69.9267 164.722 70.7287 164.152 71.5014ZM162.812 69.7088C163.251 69.0931 163.394 68.4452 163.239 67.7648C163.085 67.0844 162.694 66.5128 162.066 66.05C161.496 65.6299 160.873 65.4538 160.197 65.5217C159.528 65.58 158.926 65.8898 158.393 66.451L162.812 69.7088ZM86.3751 45.6734C85.7472 45.2105 85.2641 44.6829 84.9256 44.0904C84.6039 43.4954 84.4406 42.898 84.4357 42.298C84.4379 41.6883 84.6073 41.1349 84.944 40.6377L86.6537 41.8981C86.4334 42.2576 86.3827 42.66 86.5016 43.1054C86.6372 43.5483 86.9272 43.9336 87.3715 44.2611C87.8351 44.6029 88.2566 44.7795 88.6359 44.7907C89.032 44.7995 89.3333 44.6638 89.5398 44.3837C89.7605 44.0843 89.7794 43.7553 89.5965 43.3968C89.4232 43.0454 89.0915 42.5549 88.6015 41.9253C88.1237 41.3196 87.7535 40.8007 87.4907 40.3684C87.2279 39.9361 87.074 39.4574 87.0289 38.9322C86.9934 38.414 87.168 37.8942 87.5525 37.3726C87.8658 36.9476 88.2762 36.6538 88.7837 36.4912C89.2983 36.319 89.8622 36.3024 90.4753 36.4413C91.0982 36.5874 91.7138 36.8848 92.3223 37.3334C93.2303 38.0027 93.7886 38.7722 93.9974 39.6417C94.2229 40.5087 94.063 41.3524 93.5177 42.1729L91.8661 40.9553C92.1006 40.5765 92.1658 40.1848 92.0616 39.78C91.9575 39.3753 91.6833 39.0091 91.239 38.6815C90.8043 38.3611 90.4106 38.1975 90.0577 38.1908C89.7048 38.1841 89.4287 38.316 89.2293 38.5865C89.0727 38.7989 89.0182 39.0346 89.0659 39.2934C89.1137 39.5522 89.2165 39.807 89.3746 40.0577C89.5398 40.2988 89.7934 40.6423 90.1355 41.0883C90.6011 41.6701 90.9569 42.1784 91.2029 42.6132C91.4656 43.0454 91.6183 43.5158 91.6609 44.0243C91.7035 44.5327 91.5409 45.0465 91.1731 45.5655C90.8385 46.0195 90.4138 46.3326 89.8992 46.5048C89.3846 46.6771 88.8207 46.6937 88.2076 46.5547C87.6041 46.4229 86.9932 46.1291 86.3751 45.6734ZM93.7317 44.6788C94.3228 43.8771 95.0103 43.2882 95.7945 42.9122C96.5883 42.5432 97.3947 42.3998 98.2138 42.4819C99.0497 42.5614 99.8154 42.8575 100.511 43.3702C101.139 43.8331 101.592 44.361 101.87 44.9539C102.166 45.5443 102.318 46.1263 102.327 46.6998L103.182 45.5407L104.848 46.7691L98.9627 54.7521L97.2966 53.5238L98.1724 52.3358C97.6146 52.5059 97.0016 52.5386 96.3336 52.4337C95.6655 52.3288 95.0223 52.0484 94.4042 51.5927C93.7184 51.0871 93.2188 50.4504 92.9052 49.6826C92.5988 48.905 92.508 48.0778 92.6328 47.2007C92.7744 46.3211 93.1407 45.4805 93.7317 44.6788ZM100.245 49.525C100.65 48.9745 100.887 48.4109 100.954 47.8343C101.031 47.2649 100.965 46.7386 100.754 46.2555C100.544 45.7724 100.226 45.3742 99.8011 45.0609C99.3761 44.7476 98.9017 44.5619 98.3781 44.5038C97.8615 44.436 97.3377 44.5195 96.8069 44.7543C96.2927 44.9866 95.8327 45.3779 95.4269 45.9285C95.021 46.4791 94.776 47.0439 94.692 47.623C94.6176 48.2092 94.682 48.7487 94.8853 49.2415C95.1053 49.7317 95.423 50.1299 95.8383 50.4361C96.2633 50.7494 96.7377 50.9351 97.2614 50.9932C97.785 51.0513 98.3075 50.9594 98.8287 50.7175C99.3667 50.4731 99.8387 50.0756 100.245 49.525ZM116.777 55.3625C117.405 55.8253 117.869 56.3687 118.17 56.9927C118.48 57.6238 118.586 58.2985 118.489 59.0169C118.401 59.7425 118.09 60.4674 117.556 61.1919L114.085 65.9006L112.447 64.6936L115.737 60.2312C116.264 59.5164 116.488 58.839 116.408 58.1988C116.336 57.549 115.99 56.9962 115.372 56.5405C114.754 56.0847 114.119 55.9147 113.467 56.0305C112.832 56.1437 112.251 56.5577 111.724 57.2725L108.434 61.7349L106.797 60.5279L110.087 56.0655C110.614 55.3507 110.837 54.6733 110.758 54.0331C110.685 53.3833 110.34 52.8305 109.722 52.3748C109.104 51.919 108.469 51.749 107.817 51.8648C107.182 51.978 106.601 52.392 106.074 53.1068L102.784 57.5692L101.132 56.3515L107.017 48.3684L108.669 49.5861L107.996 50.4989C108.509 50.3699 109.04 50.3667 109.591 50.4894C110.142 50.612 110.654 50.8478 111.127 51.1968C111.764 51.6667 112.235 52.2221 112.537 52.8628C112.84 53.5036 112.938 54.1796 112.831 54.8909C113.429 54.586 114.087 54.4822 114.805 54.5794C115.531 54.6671 116.188 54.9281 116.777 55.3625ZM122.858 61.8582C123.409 61.6976 124.018 61.6698 124.686 61.7748C125.354 61.8797 125.993 62.1564 126.601 62.605C127.297 63.1177 127.801 63.758 128.115 64.5259C128.445 65.2912 128.546 66.104 128.419 66.9642C128.292 67.8245 127.933 68.6555 127.342 69.4572C126.751 70.2589 126.056 70.8574 125.257 71.2528C124.466 71.6385 123.649 71.7964 122.806 71.7265C121.98 71.6541 121.219 71.3616 120.524 70.8489C119.915 70.4003 119.463 69.8808 119.168 69.2904C118.88 68.6903 118.721 68.0964 118.692 67.5086L115.039 72.4636L113.388 71.2459L122.072 59.467L123.723 60.6846L122.858 61.8582ZM125.661 68.2182C126.067 67.6676 126.3 67.1089 126.36 66.542C126.437 65.9725 126.362 65.4475 126.135 64.967C125.924 64.4839 125.607 64.0857 125.182 63.7723C124.766 63.4662 124.292 63.2804 123.759 63.2152C123.235 63.1571 122.708 63.2455 122.177 63.4802C121.655 63.7221 121.192 64.1184 120.786 64.6689C120.38 65.2195 120.135 65.7843 120.051 66.3634C119.984 66.94 120.055 67.4698 120.266 67.9529C120.486 68.4431 120.804 68.8413 121.219 69.1475C121.644 69.4608 122.118 69.6465 122.642 69.7046C123.182 69.7602 123.717 69.6622 124.245 69.4106C124.783 69.1662 125.255 68.7687 125.661 68.2182ZM135.561 65.1854L127.657 75.9067L126.006 74.6891L133.91 63.9677L135.561 65.1854ZM140.229 78.7124C140.008 79.0118 139.79 79.268 139.573 79.481L133.473 74.9842C133.052 75.6572 132.911 76.3436 133.051 77.0433C133.191 77.743 133.571 78.3207 134.189 78.7764C135.077 79.4315 135.979 79.5225 136.895 79.0494L138.677 80.3632C137.894 80.9192 137.009 81.1989 136.023 81.2022C135.053 81.203 134.1 80.858 133.163 80.1673C132.4 79.6047 131.839 78.9301 131.48 78.1435C131.137 77.3542 131.02 76.5224 131.128 75.6479C131.253 74.7708 131.618 73.9218 132.223 73.1008C132.828 72.2798 133.523 71.6812 134.307 71.3052C135.108 70.9266 135.933 70.789 136.781 70.8924C137.639 71.003 138.459 71.3467 139.241 71.9235C139.994 72.4789 140.545 73.138 140.892 73.9008C141.239 74.6635 141.356 75.4654 141.243 76.3063C141.137 77.1376 140.799 77.9397 140.229 78.7124ZM138.89 76.9197C139.329 76.3041 139.471 75.6561 139.316 74.9757C139.162 74.2954 138.771 73.7238 138.143 73.2609C137.573 72.8408 136.95 72.6647 136.274 72.7327C135.605 72.791 135.004 73.1007 134.471 73.6619L138.89 76.9197ZM141.569 86.3644C140.941 85.9016 140.458 85.3739 140.12 84.7815C139.798 84.1865 139.635 83.589 139.63 82.9891C139.632 82.3794 139.801 81.826 140.138 81.3288L141.848 82.5892C141.628 82.9486 141.577 83.3511 141.696 83.7965C141.831 84.2394 142.121 84.6246 142.566 84.9522C143.029 85.294 143.451 85.4705 143.83 85.4818C144.226 85.4906 144.527 85.3549 144.734 85.0748C144.955 84.7753 144.974 84.4464 144.791 84.0879C144.617 83.7365 144.286 83.246 143.796 82.6164C143.318 82.0107 142.948 81.4917 142.685 81.0595C142.422 80.6272 142.268 80.1485 142.223 79.6232C142.188 79.1051 142.362 78.5852 142.747 78.0637C143.06 77.6387 143.47 77.3449 143.978 77.1823C144.492 77.0101 145.056 76.9935 145.669 77.1324C146.292 77.2785 146.908 77.5759 147.516 78.0245C148.424 78.6938 148.983 79.4633 149.191 80.3328C149.417 81.1998 149.257 82.0435 148.712 82.864L147.06 81.6463C147.295 81.2676 147.36 80.8758 147.256 80.4711C147.152 80.0663 146.877 79.7002 146.433 79.3726C145.998 79.0522 145.605 78.8886 145.252 78.8819C144.899 78.8752 144.623 79.0071 144.423 79.2775C144.267 79.49 144.212 79.7257 144.26 79.9845C144.308 80.2433 144.411 80.4981 144.569 80.7488C144.734 80.9898 144.988 81.3334 145.33 81.7794C145.795 82.3612 146.151 82.8695 146.397 83.3042C146.66 83.7365 146.812 84.2069 146.855 84.7153C146.898 85.2238 146.735 85.7375 146.367 86.2566C146.033 86.7106 145.608 87.0237 145.093 87.1959C144.579 87.3681 144.015 87.3848 143.402 87.2458C142.798 87.114 142.187 86.8202 141.569 86.3644ZM156.002 81.2616L150.634 88.1495L149.257 87.1348L154.249 79.9691L156.002 81.2616ZM147.678 90.8235C147.379 90.6028 147.202 90.3162 147.149 89.9638C147.096 89.6115 147.18 89.2856 147.4 88.9861C147.621 88.6867 147.908 88.5103 148.26 88.457C148.612 88.4037 148.938 88.4875 149.238 88.7082C149.527 88.9218 149.699 89.2048 149.752 89.5572C149.806 89.9096 149.722 90.2355 149.501 90.5349C149.28 90.8343 148.994 91.0107 148.641 91.064C148.289 91.1173 147.968 91.0371 147.678 90.8235Z" fill="white"/>
</svg>
